<svg id="Layer_1" data-name="Layer 1" xmlns="http://www.w3.org/2000/svg" viewBox="0 0 200 200"><defs><style>.cls-1{fill:#F4F7ED;}</style></defs><g id="logo-for-WP"><path class="cls-1" d="M124.19,127.38c7.43-.49,16.1-4.52,24.42-11.64,14.54-12.43,27.55-30.18,34-55.49.82-3.23,2.1-5.14-.8-7.54-1.42-1.18-4.74.52-5.16,2.61-4.81,23.76-13.58,39.39-29.87,53.64-7.28,6.37-15.11,10-21.65,10.54a83.57,83.57,0,0,0,.46-13.9c-.35-5-1.76-9-4-11.79,10-20.32,18.25-42.5,18.5-59.39.11-7.38-1.27-13.48-4.09-18.14C128.44,3.9,111.43.43,89.28,6.75c-21.35,6.1-42.61,20.14-56.85,37.56q-2,2.43-4.28,5.14C15.74,64.21.3,82.58,5.92,98.63c2.78,8,10.5,10,23.49,6.21A29.89,29.89,0,0,0,27,115.44c-.46,7.45-.29,14.8,4.05,18.08,12.41,9.4,24.82-4.77,30.12-10.81.69-.79,1.28-1.47,1.6-1.78a4.91,4.91,0,0,0,.8-4.84c-.61-1.7-2-2.27-3-1.29-.49.46-1.1,1.15-1.93,2.11C54,122.25,43,134.75,32.92,127.1c-.9-.68-2.13-1.61-1.55-10.95.22-3.5.57-6,4.74-13.62,1.08-.41,2.18-.86,3.32-1.34A174.48,174.48,0,0,0,66.35,86.66a14.62,14.62,0,0,0,4.47-14.48c-1.63-6.23-7.07-9.29-12.13-6.83-9,4.37-12.69,9.58-23.47,28.25-.51.89-1,1.73-1.44,2.54-18.84,7-23.1,1.73-24.06-1-3.69-10.56,11.18-28.26,21-40,1.53-1.82,3-3.54,4.32-5.18A114.32,114.32,0,0,1,90,13.74c20.1-5.74,36.5-2.86,42.78,7.51,2,3.29,2.92,7.54,2.84,13-.18,11.92-5.3,29-14.8,49.41-1,2.26-2.17,4.57-3.33,6.91a11.9,11.9,0,0,0-2.27-.85,12.67,12.67,0,0,0-14.42,6.62,17.92,17.92,0,0,0-1.38,10.26,22.51,22.51,0,0,0,4,9.7c-2.8,4.69-5.65,9.21-8.44,13.4C78.56,154.37,59,172.83,36.74,184.58c-1.15.6-1.78,2.61-1.4,4.47.3,1.49,1.16,2.44,2.08,2.44a1.39,1.39,0,0,0,.67-.17c22.83-12.07,43-31,59.89-56.41,2.76-4.14,5.87-9.06,9.11-14.5a32.48,32.48,0,0,0,7.67,5.26,16,16,0,0,0,4.56,1.47c-.19,1.5-.39,3-.6,4.55-1.83,13.75-3.91,29.32-.83,40.84,1.77,6.59,7.84,15.31,17.85,16.73,6.75,1,15.29-1.42,25.51-10a5.64,5.64,0,0,0,1.39-5.34c-.5-1.88-1.93-2.54-3.2-1.48-12.28,10.3-21.05,10.05-26.25,8a18.49,18.49,0,0,1-10.71-11.82c-2.53-9.44-.7-23.14,1.07-36.38C123.77,130.62,124,129,124.19,127.38ZM60,72.14a5.32,5.32,0,0,1,2.34-.57A4.72,4.72,0,0,1,66.8,75c.6,2.31-1.68,4.69-2.52,5.46a184,184,0,0,1-22.6,12.43C50.05,78.73,53.18,75.44,60,72.14Zm44.33,31.7a5.35,5.35,0,0,1,.35-3.34c.84-1.77,4.42-3.77,8.23-3.24a8.19,8.19,0,0,1,1,.2l.17,0c-2.21,4.22-4.54,8.47-6.93,12.65A15.16,15.16,0,0,1,104.28,103.84Zm16,15.46a13.41,13.41,0,0,1-3.43-1.13,29.2,29.2,0,0,1-6.07-4c2.49-4.38,5-9,7.5-13.81a12.67,12.67,0,0,1,2.42,7.17A72,72,0,0,1,120.24,119.3Z"/><path class="cls-1" d="M122.74,127.76c8.3-.59,16.41-4.25,23.08-9.06a93.76,93.76,0,0,0,17.6-17A103.76,103.76,0,0,0,176.92,80,114.47,114.47,0,0,0,182,67c.75-2.36,1.41-4.74,2-7.13.41-1.56,1.26-3.33.94-5s-1.71-3.12-3.35-2.92a13.66,13.66,0,0,0-4.24,1.22c-2,1-2.21,2.6-2.64,4.57-.48,2.22-1,4.44-1.61,6.64A94.21,94.21,0,0,1,164,87.14a85,85,0,0,1-14.7,18.59,65.37,65.37,0,0,1-11,8.87,43.16,43.16,0,0,1-6.17,3.15c-.63.25-1.27.49-1.91.71l-.7.23c-.77.26.13-.24.38-.09-.23-.14-1.34.26-1.63.31s-1.21.32-1.47.19-.1-.57-.06-1,.06-.64.08-1c.06-.63.11-1.26.16-1.89.09-1.38.17-2.75.21-4.13a52,52,0,0,0-.21-7.28,23.79,23.79,0,0,0-1.65-6.59,16.13,16.13,0,0,0-1.3-2.51,9.07,9.07,0,0,1-.77-1.1c-.22-.48-.13-.2,0-.67a8.6,8.6,0,0,1,.61-1.26,240.85,240.85,0,0,0,11.94-28.89c2.86-8.63,5.21-17.61,5.68-26.72.42-8.2-.8-17-6.32-23.42C124.75.64,106.26,2.3,92.46,5.88a119.21,119.21,0,0,0-48.8,25.77c-7.21,6.31-13.18,13.65-19.3,21S12.24,67.28,7.89,75.69C4.2,82.82,1.67,91.28,4.52,99.15a11.38,11.38,0,0,0,5.29,6.39A17.1,17.1,0,0,0,19.2,107a59.88,59.88,0,0,0,11.46-2.47l-2.7.72a40.46,40.46,0,0,0-2.56,15.69c0,4.24.33,9.56,3.74,12.59,6.37,5.69,15.85,3.51,22.35-.77a48.35,48.35,0,0,0,8.86-7.86c1.2-1.31,2.34-2.69,3.55-4a4.91,4.91,0,0,0,.81-5.89c-1.07-1.72-3.22-.83-4.75-.27s-2.67,2.49-3.73,3.69A51.24,51.24,0,0,1,48,126.18a22,22,0,0,1-5.32,2.91c-1.93.69,2.18-.42.8-.2-.29.05-.58.11-.88.15a9.71,9.71,0,0,1-1.21.08,10.47,10.47,0,0,1-3-.39c-2-.55-4.49-1.64-5.16-3.75a14.12,14.12,0,0,1-.5-4,56.49,56.49,0,0,1,.22-6.24A25.17,25.17,0,0,1,35.58,106a20.58,20.58,0,0,1,1.75-3.4,1.36,1.36,0,0,1,.84-.66l1-.41,2.1-.88q4-1.71,7.85-3.65,6.65-3.3,13-7.11a39.51,39.51,0,0,0,5.77-3.69,14.66,14.66,0,0,0,4.7-12.63C72.06,69.36,69.44,65,65,64.22a12.46,12.46,0,0,0-5.5.74,19.15,19.15,0,0,0-4.22,1.8c-5.22,2.9-9,7.27-12.32,12.16-2.68,3.94-5.09,8-7.49,12.17-.71,1.21-1.41,2.43-2.11,3.65a9.08,9.08,0,0,1-.92,1.61c-.52.57-2,.87-2.74,1.11s-1.25.41-1.88.6l-.21.06c-.85.25-.86.26,0,0a3.92,3.92,0,0,0-.93.22c-1.15.26-2.31.48-3.49.63-3.79.49-9.21.55-11.47-3.23-1.24-2.06-1.23-4.77-.86-7.07a34,34,0,0,1,4.41-11.19c4.59-8,10.62-15.17,16.55-22.23C35.2,51.19,38.52,47,42.25,43.16a112.8,112.8,0,0,1,11.89-10.6,115.62,115.62,0,0,1,27.3-15.74c9.78-4,20.44-6.47,31-5.35,7.2.76,14.74,3.55,18.75,9.94,4.53,7.24,3.18,17.09,1.56,25a153.54,153.54,0,0,1-9.29,28.39c-2.3,5.45-4.79,10.82-7.42,16.12l2.9-.78c-3.47-1.64-6.82-1.31-10.4-.34-3.33.9-6.31,2.42-8.31,5.36-2.41,3.55-2.9,8.27-2.15,12.41a21.86,21.86,0,0,0,2.09,6.14c.26.51.54,1,.84,1.49a6.9,6.9,0,0,1,.83,1.27c.19.77-1.32,2.58-1.79,3.35-9.32,15.23-20,29.62-32.92,42A150,150,0,0,1,48.46,177c-3.2,2.18-6.49,4.24-9.86,6.14-1.44.82-3.66,1.49-4.39,3.09s-.67,4.16.8,5.29c1.05.79,3-.06,4.07-.43a28.8,28.8,0,0,0,4.77-2.55q5.15-3,10-6.34a154.5,154.5,0,0,0,18.72-15.33c12.62-12.06,23.1-26,32.29-40.83q1.86-3,3.67-6l-2.9.77a27,27,0,0,0,10.5,6.35c.4.11,1.2.11,1.51.35s.14.06.17.49a7.18,7.18,0,0,1-.12.9c-.15,1.14-.3,2.28-.46,3.42-.28,2.11-.56,4.22-.82,6.33-1.06,8.4-2,16.93-1.38,25.39.46,6.54,1.92,12.82,6.16,18a20.65,20.65,0,0,0,16.48,7.83,34,34,0,0,0,8.23-1.52,37.88,37.88,0,0,0,8.84-3.76,52.08,52.08,0,0,0,5.16-3.45c1.5-1.13,3.34-2.23,4-4.08.52-1.46.61-3.58-.49-4.82s-2.4-.42-3.6-.1c-1.66.45-2.7,1.49-4.06,2.53a48.38,48.38,0,0,1-5.25,3.5,33.62,33.62,0,0,1-4.44,2.15c-.47.19-.94.36-1.42.52a3.73,3.73,0,0,0-.44.14c-.51.22,1-.28,1-.26a10.74,10.74,0,0,0-2.3.39,17.06,17.06,0,0,1-13.67-4.37,19,19,0,0,1-4.8-7,30.18,30.18,0,0,1-1.65-9.48c-.46-8.76.79-17.57,1.94-26.24.31-2.34.63-4.69.93-7,0,.35-2.84.38-2.9.77-1,7.94-2.24,15.86-2.75,23.85a78.29,78.29,0,0,0,0,10.83,28.09,28.09,0,0,0,1.56,8.08,18.35,18.35,0,0,0,10.88,10.59,19.23,19.23,0,0,0,11.07.06,40,40,0,0,0,8.3-2.93,41.34,41.34,0,0,0,4.9-3c.86-.59,1.71-1.22,2.54-1.86a10.46,10.46,0,0,1,2.45-1.8l-2.84.76c2-.44,2.62,2.19,2.54,3.68-.13,2.17-1.25,3.37-2.87,4.66a48.25,48.25,0,0,1-11,6.8c-.82.35-1.65.67-2.49.95a4.48,4.48,0,0,0-.62.2c1.2-.58,1.22-.3.67-.19s-1,.22-1.55.3a22.63,22.63,0,0,1-4.27.26,19.66,19.66,0,0,1-9.71-3c-14.13-8.86-12.41-28.34-10.88-42.63.56-5.2,1.29-10.37,2-15.55,0-.25.19-.67.11-.9.11-.21,0-.3-.19-.26l-.65-.14a14.1,14.1,0,0,1-1.69-.47,20.22,20.22,0,0,1-3.56-1.66,32.84,32.84,0,0,1-6.11-4.43,11.33,11.33,0,0,0-2.9.77,242.64,242.64,0,0,1-24,34.17A164.8,164.8,0,0,1,53.8,181q-4.2,3.06-8.6,5.81-2.1,1.32-4.25,2.55a35.81,35.81,0,0,1-4.64,2.51l2.89-.78c-2.26.29-2.74-2.95-2.42-4.56.45-2.3,2.56-2.91,4.39-3.94q5.82-3.27,11.3-7.09a153.08,153.08,0,0,0,21.06-17.82,184.13,184.13,0,0,0,18.79-22.36c3.11-4.33,6-8.79,8.87-13.31.73-1.17,1.46-2.35,2.18-3.53l1-1.69a4.55,4.55,0,0,0,.51-.85,6,6,0,0,0-.72-1.08,22.56,22.56,0,0,1-2.86-6.56c-1.29-5.13-.72-11.34,3.05-15.34a12.11,12.11,0,0,1,2.55-2.07,11.8,11.8,0,0,1,1.53-.81l.65-.27c.84-.28.8-.28-.12,0s-1,.26-.09.09a12.38,12.38,0,0,1,7.19,1.1,9.94,9.94,0,0,0,2.9-.78A249.53,249.53,0,0,0,130.92,62.4a110.13,110.13,0,0,0,5.75-22.66c.89-7.08.9-15.15-3.86-20.94-4.18-5.07-10.74-7.35-17.09-8.07-8.43-1-16.84.59-25,2.79a109.84,109.84,0,0,0-24.31,9.84A116.73,116.73,0,0,0,44,39.44c-6.58,6-12.12,13-17.8,19.82C21,65.51,15.82,71.93,11.88,79.06,9.29,83.75,6,90.55,8.44,96c1.26,2.82,4.46,3.84,7.32,4a30.18,30.18,0,0,0,9.11-1.09c1.85-.45,3.7-.95,5.52-1.5,1-.3,2-.62,3-1A7.88,7.88,0,0,0,35,95.84a4.33,4.33,0,0,0,1-1.51c3.9-6.84,7.76-13.92,12.66-20.11a32.18,32.18,0,0,1,11-9.06,5.29,5.29,0,0,0,1-.47c-.8.7-1.48.25-.76.24.2,0,.4,0,.6,0a7.56,7.56,0,0,1,2.5.35,8.73,8.73,0,0,1,4.11,2.89,13.43,13.43,0,0,1,2.06,12,13.89,13.89,0,0,1-4.92,7.33c-2.09,1.43-4.29,2.72-6.47,4q-5.7,3.33-11.61,6.29c-2.18,1.08-4.37,2.12-6.59,3.1-1.12.49-2.24,1-3.37,1.42a7.11,7.11,0,0,0-1.63.65,7.22,7.22,0,0,0-1,1.84,32,32,0,0,0-3.42,8.72,39.36,39.36,0,0,0-.43,9.39c.09,1.44.19,3.27,1.3,4.34a10.79,10.79,0,0,0,8.12,2.65c6.82-.57,12.5-4.54,17.15-9.28,1-1,2-2.12,3-3.21s2-2.89,3.43-3.39l-2.89.77c2.73-.43,2.86,4.09,2.05,5.71a14.27,14.27,0,0,1-2.22,2.63c-.58.66-1.16,1.32-1.75,2a48.69,48.69,0,0,1-9.67,8.63,25.52,25.52,0,0,1-2.84,1.6c-.54.25-1.08.49-1.63.69-.33.13-.69.2-1,.35,1.67-.42,2.09-.54,1.25-.36l-.57.11a13.6,13.6,0,0,1-7.06-.71,12.12,12.12,0,0,1-5.84-4.29,15.61,15.61,0,0,1-2.13-6.93,41.39,41.39,0,0,1,2.37-19.7c-.12.28-2.35.61-2.7.72-.95.27-.16,0,0,0l-1,.25c-.61.13-1.23.26-1.85.37-1,.18-2,.32-3,.41a23,23,0,0,1-5.11-.06,11.88,11.88,0,0,1-7.27-3.54c-4.77-5.2-4.26-13.7-2.33-20C10.14,74.25,15.37,66.82,20.68,60c2.8-3.61,5.73-7.1,8.66-10.6s5.84-7.15,9-10.53A118.34,118.34,0,0,1,83.8,8.62c8.41-3.07,17.43-4.95,26.42-4.51,6.68.32,13.5,2.07,18.8,6.31,13.14,10.52,10.2,30.25,6.41,44.53a191.28,191.28,0,0,1-10,27.83q-1.5,3.42-3.09,6.8c-.53,1.12-1.07,2.25-1.61,3.37a5.81,5.81,0,0,0-.41.83c-.13.48-.22.19,0,.68a11.44,11.44,0,0,0,.86,1.24c2.29,3.69,3,8.08,3.08,12.34.07,2.44,0,4.89-.17,7.32-.09,1.27-.19,2.54-.31,3.8-.08.85,0,.74.74.64.49-.06,1-.14,1.48-.23a45.11,45.11,0,0,0,10.24-3.14c8-3.57,14.61-9.68,20.41-16.08,10.68-11.79,17.1-26.18,20.64-41.58.41-1.78.43-4.16,1.82-5.51a4.76,4.76,0,0,1,1-.72,2.91,2.91,0,0,0,.53-.27l-.91.24c-1,.2-1.21.27-.64.2a2.8,2.8,0,0,1,2,1,4.25,4.25,0,0,1,.83,4.32c-.52,2-1.08,4-1.65,6a110.77,110.77,0,0,1-10.3,24.68,103.7,103.7,0,0,1-13.95,19c-5.69,6.12-12.1,11.9-19.52,15.83a42.93,42.93,0,0,1-6.11,2.66l-.71.23c-.45.15-.72,0,.34-.08-.48,0-1,.23-1.49.31a27.18,27.18,0,0,1-2.84.35C124.66,127.06,123.72,127.69,122.74,127.76Z"/><path class="cls-1" d="M61.4,71.75a4.71,4.71,0,0,1,.81-.32l-.42.12c-2.54.7-1,.34-.2.47a4.56,4.56,0,0,1,1.34.43A5,5,0,0,1,64.69,74a4.07,4.07,0,0,1-.06,4.7A11.16,11.16,0,0,1,60.5,82.3,185.55,185.55,0,0,1,40.24,93.23l2.89-.78c2.94-5,5.88-10.09,9.73-14.4a27.19,27.19,0,0,1,8.54-6.3c-.88.43-2,.34-2.9.78A27.16,27.16,0,0,0,50,78.82c-3.85,4.32-6.79,9.46-9.72,14.41.1-.17,1.23-.32,1.45-.37a8.79,8.79,0,0,0,1.44-.41,184.81,184.81,0,0,0,18.74-10A34.29,34.29,0,0,0,65.73,80c2.15-1.75,3.61-4.89,1.55-7.23-2.25-2.55-6.07-1.47-8.78-.27C59.4,72.13,60.5,72.15,61.4,71.75Z"/><path class="cls-1" d="M105.73,103.45a5.61,5.61,0,0,1,.43-3.5,6.4,6.4,0,0,1,3.28-2.47l.27-.1.16-.06q.73-.24-.84.21c-1.86.5-1.19.3-.8.23l.46-.09a10.71,10.71,0,0,1,1.39-.11,10.11,10.11,0,0,1,1.45.11l.72.14a1.38,1.38,0,0,1,.29.08,3.21,3.21,0,0,1-.23.45q-1.5,2.84-3,5.67c-1.2,2.18-2.41,4.36-3.65,6.52l2.89-.77a15.36,15.36,0,0,1-2.77-6.31c0,.08-2.92.65-2.9.78a15.15,15.15,0,0,0,2.78,6.3,7.73,7.73,0,0,0,1.45-.37l1-.28c.08,0,.39-.06.42-.12q1.83-3.2,3.6-6.42c.59-1.07,1.17-2.15,1.75-3.22.27-.52.55-1,.83-1.56.13-.26.27-.52.41-.78a4.64,4.64,0,0,0,.23-.44c.09-.26.14-.14,0-.27a4,4,0,0,0-1.63-.26,8.86,8.86,0,0,0-1.63,0,23,23,0,0,0-3.38.77,10.05,10.05,0,0,0-4.76,2.33,4.93,4.93,0,0,0-1,4.29C102.81,104.12,105.75,103.6,105.73,103.45Z"/><path class="cls-1" d="M121.69,118.92a18.11,18.11,0,0,1-5.8-2.45,28.64,28.64,0,0,1-2.57-1.78c-.28-.22-.88-.53-1-.84s.49-1.13.68-1.48q3.48-6.14,6.72-12.42l-2.9.78a14,14,0,0,1,2.48,8.16,74.9,74.9,0,0,1-.48,10.8,12.89,12.89,0,0,1,1.46-.37,7.48,7.48,0,0,0,1.44-.4,78,78,0,0,0,.48-10.8c-.13-2.9-.67-5.83-2.48-8.17a13.89,13.89,0,0,0-2.9.78q-3.24,6.27-6.72,12.42c-.14.26-.84,1.14-.78,1.39s.91.75,1.13.93c.78.6,1.6,1.16,2.44,1.69a18,18,0,0,0,5.93,2.53c.37.08,1.1-.28,1.46-.37S121.33,118.84,121.69,118.92Z"/><circle class="cls-1" cx="182.89" cy="186.86" r="5.31"/></g></svg>