<svg id="Layer_1" data-name="Layer 1" xmlns="http://www.w3.org/2000/svg" viewBox="0 0 195.67 200"><defs><style>.cls-1{fill:#282c34;}</style></defs><g id="logo-for-WP"><path class="cls-1" d="M126.28,129.71c7.42-.48,16.09-4.52,24.42-11.63,14.54-12.44,27.55-30.18,34-55.5.82-3.23,2.11-5.14-.79-7.53-1.42-1.18-4.74.51-5.17,2.6C173.9,81.42,165.13,97,148.84,111.29c-7.28,6.37-15.11,10-21.64,10.55a83.64,83.64,0,0,0,.45-13.91c-.34-5-1.76-9-4-11.78,10-20.32,18.26-42.51,18.51-59.4.1-7.37-1.27-13.47-4.1-18.13-7.49-12.38-24.5-15.85-46.65-9.53C70,15.19,48.76,29.23,34.51,46.65c-1.32,1.62-2.76,3.32-4.27,5.13C17.83,66.54,2.39,84.92,8,101c2.78,8,10.5,10,23.48,6.2a30.13,30.13,0,0,0-2.38,10.6c-.47,7.45-.3,14.8,4,18.09C45.56,145.25,58,131.09,63.27,125c.69-.79,1.29-1.47,1.61-1.77a4.93,4.93,0,0,0,.79-4.85c-.6-1.69-1.94-2.27-3-1.28-.48.46-1.09,1.15-1.93,2.1-4.68,5.34-15.63,17.85-25.75,10.19-.89-.68-2.12-1.61-1.54-10.94.22-3.51.57-5.95,4.74-13.62,1.08-.42,2.18-.87,3.31-1.35A175.18,175.18,0,0,0,68.44,89a14.67,14.67,0,0,0,4.47-14.48c-1.63-6.23-7.07-9.3-12.13-6.84-9,4.37-12.69,9.59-23.47,28.25-.52.89-1,1.74-1.45,2.54-18.83,7-23.09,1.74-24-1-3.7-10.57,11.17-28.26,21-40,1.53-1.82,3-3.54,4.32-5.19C50.87,35.53,71.42,22,92.13,16.07c20.1-5.73,36.49-2.86,42.77,7.52,2,3.28,2.92,7.53,2.84,13-.17,11.92-5.29,29-14.8,49.42-1,2.26-2.17,4.57-3.33,6.9a12.07,12.07,0,0,0-2.27-.85,12.66,12.66,0,0,0-14.41,6.63,17.91,17.91,0,0,0-1.38,10.26,22.3,22.3,0,0,0,4,9.69c-2.81,4.69-5.65,9.21-8.45,13.41C80.65,156.7,61,175.16,38.82,186.91c-1.14.61-1.77,2.61-1.4,4.47.3,1.5,1.16,2.45,2.08,2.45a1.44,1.44,0,0,0,.68-.18c22.82-12.06,43-31,59.88-56.41,2.76-4.14,5.87-9.05,9.11-14.5a33.09,33.09,0,0,0,7.68,5.27,16.57,16.57,0,0,0,4.56,1.47c-.19,1.5-.4,3-.6,4.55-1.84,13.74-3.92,29.32-.83,40.83,1.76,6.59,7.83,15.32,17.85,16.73,6.75.95,15.29-1.41,25.51-10a5.62,5.62,0,0,0,1.39-5.33c-.5-1.89-1.94-2.55-3.2-1.49-12.28,10.3-21.06,10.06-26.26,8A18.53,18.53,0,0,1,124.56,171c-2.52-9.43-.7-23.13,1.07-36.38C125.85,133,126.07,131.33,126.28,129.71ZM62,74.47a5.39,5.39,0,0,1,2.34-.57,4.72,4.72,0,0,1,4.5,3.39c.61,2.31-1.68,4.69-2.51,5.46a187.86,187.86,0,0,1-22.6,12.43C52.13,81.06,55.26,77.77,62,74.47Zm44.32,31.7a5.47,5.47,0,0,1,.35-3.34c.85-1.77,4.43-3.77,8.23-3.23a8.3,8.3,0,0,1,1,.19l.16,0c-2.21,4.22-4.54,8.47-6.93,12.64A15.11,15.11,0,0,1,106.36,106.17Zm16,15.47a13.05,13.05,0,0,1-3.43-1.14,28.89,28.89,0,0,1-6.08-4c2.5-4.38,5-9,7.5-13.8a12.6,12.6,0,0,1,2.43,7.16A73.32,73.32,0,0,1,122.33,121.64Z"/><path class="cls-1" d="M124.83,130.1c8.3-.6,16.41-4.26,23.07-9.07a93.75,93.75,0,0,0,17.61-17A104.05,104.05,0,0,0,179,82.35a110.85,110.85,0,0,0,5.08-13c.76-2.35,1.41-4.73,2-7.12.41-1.57,1.26-3.34.94-5s-1.71-3.11-3.34-2.91a14,14,0,0,0-4.25,1.21c-1.95,1-2.21,2.6-2.63,4.57-.49,2.23-1,4.45-1.61,6.65A94.78,94.78,0,0,1,166,89.48a85.48,85.48,0,0,1-14.71,18.59,65.32,65.32,0,0,1-11,8.86,42.16,42.16,0,0,1-6.17,3.15c-.63.26-1.26.5-1.9.72l-.7.23c-.77.25.12-.24.38-.1-.24-.13-1.34.27-1.63.32s-1.22.32-1.47.18-.1-.56-.07-1l.09-1c0-.63.11-1.27.15-1.9.1-1.37.18-2.75.22-4.12a52.19,52.19,0,0,0-.22-7.29,23.7,23.7,0,0,0-1.64-6.58,17.52,17.52,0,0,0-1.3-2.51,11,11,0,0,1-.77-1.1c-.22-.49-.14-.2,0-.68a9.19,9.19,0,0,1,.62-1.26,240.85,240.85,0,0,0,11.94-28.89c2.85-8.62,5.2-17.61,5.67-26.72.43-8.2-.8-17-6.31-23.42C126.83,3,108.35,4.64,94.55,8.22A119.23,119.23,0,0,0,45.74,34c-7.2,6.31-13.17,13.65-19.29,21S14.33,69.62,10,78C6.28,85.15,3.76,93.62,6.6,101.48a11.43,11.43,0,0,0,5.29,6.39,17.14,17.14,0,0,0,9.4,1.45,59.31,59.31,0,0,0,11.46-2.48l-2.7.72c-2.06,5-2.58,10.29-2.57,15.69,0,4.25.34,9.56,3.74,12.6,6.38,5.69,15.86,3.5,22.36-.78a48.35,48.35,0,0,0,8.86-7.86c1.2-1.31,2.33-2.68,3.55-4a4.92,4.92,0,0,0,.8-5.9c-1.06-1.71-3.21-.83-4.75-.26s-2.66,2.49-3.73,3.69a51.56,51.56,0,0,1-8.22,7.75,21.68,21.68,0,0,1-5.32,2.91c-1.94.7,2.17-.41.79-.19-.29.05-.58.11-.87.14s-.81.08-1.21.09a10.58,10.58,0,0,1-3.06-.39c-2-.55-4.48-1.64-5.16-3.75a14.55,14.55,0,0,1-.49-4A59,59,0,0,1,35,117a24.86,24.86,0,0,1,2.69-8.72,19.84,19.84,0,0,1,1.75-3.4,1.31,1.31,0,0,1,.84-.67l1-.41c.71-.28,1.41-.58,2.1-.87,2.66-1.14,5.27-2.37,7.86-3.65q6.63-3.32,13-7.11A40.83,40.83,0,0,0,70,88.51a14.65,14.65,0,0,0,4.7-12.63c-.56-4.19-3.18-8.56-7.64-9.33a12.58,12.58,0,0,0-5.49.74,19,19,0,0,0-4.22,1.81c-5.22,2.9-9,7.26-12.33,12.15-2.67,3.94-5.08,8.06-7.48,12.17-.71,1.22-1.42,2.43-2.12,3.65a9.13,9.13,0,0,1-.91,1.62c-.52.57-2,.86-2.74,1.11l-1.89.6-.2.06c-.85.24-.87.25,0,0a3.4,3.4,0,0,0-.93.22c-1.15.26-2.32.48-3.49.63-3.79.49-9.22.54-11.48-3.23-1.23-2.06-1.22-4.78-.86-7.07A33.63,33.63,0,0,1,17.3,79.85c4.58-8,10.62-15.18,16.54-22.23,3.44-4.1,6.77-8.29,10.49-12.13A112.81,112.81,0,0,1,56.23,34.9,115.79,115.79,0,0,1,83.52,19.15C93.3,15.2,104,12.68,114.57,13.8c7.19.76,14.74,3.55,18.75,10,4.53,7.23,3.18,17.09,1.55,25a152.65,152.65,0,0,1-9.29,28.4c-2.29,5.45-4.79,10.81-7.42,16.11l2.9-.77c-3.46-1.65-6.82-1.32-10.39-.35-3.34.91-6.32,2.42-8.31,5.37-2.41,3.55-2.9,8.27-2.16,12.41a21.88,21.88,0,0,0,2.1,6.14c.26.51.54,1,.84,1.49a6.52,6.52,0,0,1,.83,1.26c.19.77-1.33,2.58-1.8,3.35-9.32,15.23-19.94,29.63-32.91,42a150.6,150.6,0,0,1-18.71,15.18q-4.8,3.28-9.86,6.15c-1.45.82-3.66,1.49-4.4,3.08s-.67,4.16.81,5.29c1,.8,3-.05,4.07-.42a29.56,29.56,0,0,0,4.77-2.55q5.13-3,10-6.34a155.35,155.35,0,0,0,18.71-15.33c12.62-12.07,23.1-26,32.29-40.83q1.88-3,3.67-6l-2.89.78a27.08,27.08,0,0,0,10.5,6.35,5.65,5.65,0,0,1,1.51.35c.31.23.13,0,.16.49a4.74,4.74,0,0,1-.12.9l-.45,3.41c-.28,2.11-.56,4.23-.83,6.34-1,8.39-2,16.92-1.37,25.39.46,6.54,1.92,12.82,6.16,18a20.69,20.69,0,0,0,16.48,7.84,33.88,33.88,0,0,0,8.22-1.53,37.5,37.5,0,0,0,8.85-3.75,55.68,55.68,0,0,0,5.15-3.45c1.51-1.13,3.34-2.23,4-4.08.53-1.47.62-3.59-.49-4.83s-2.39-.42-3.59-.09c-1.66.45-2.71,1.48-4.07,2.52a46.93,46.93,0,0,1-5.24,3.51,36.32,36.32,0,0,1-4.44,2.15c-.47.18-.95.35-1.43.51-.14.05-.3.08-.43.14-.51.23.95-.28,1-.26a11.68,11.68,0,0,0-2.31.4A17.12,17.12,0,0,1,131.31,179a19,19,0,0,1-4.8-7,30.24,30.24,0,0,1-1.66-9.48c-.45-8.76.8-17.58,2-26.24l.93-7c0,.36-2.85.38-2.9.78-1,7.93-2.24,15.86-2.75,23.85a75.14,75.14,0,0,0,0,10.82,27.82,27.82,0,0,0,1.56,8.09,18.36,18.36,0,0,0,10.87,10.59,19.35,19.35,0,0,0,11.08.06,40,40,0,0,0,8.3-2.94,42.64,42.64,0,0,0,4.9-2.94c.86-.6,1.7-1.22,2.53-1.87a10.72,10.72,0,0,1,2.46-1.8l-2.85.77c2-.45,2.63,2.19,2.54,3.67-.12,2.17-1.25,3.38-2.86,4.67a48.27,48.27,0,0,1-11,6.79c-.81.35-1.64.67-2.49.95a5,5,0,0,0-.62.2c1.21-.58,1.22-.29.68-.18s-1,.21-1.56.29a22.59,22.59,0,0,1-4.27.27,19.83,19.83,0,0,1-9.7-3c-14.14-8.86-12.41-28.34-10.88-42.64.55-5.19,1.28-10.36,2-15.54,0-.25.2-.67.12-.9.1-.21,0-.3-.19-.27l-.66-.13c-.57-.13-1.13-.29-1.69-.47a21.23,21.23,0,0,1-3.55-1.66,33,33,0,0,1-6.12-4.44,11.7,11.7,0,0,0-2.89.78,244.31,244.31,0,0,1-24,34.17,165.18,165.18,0,0,1-27.88,26q-4.2,3.06-8.61,5.81-2.1,1.31-4.24,2.54a35.45,35.45,0,0,1-4.65,2.52l2.9-.78c-2.27.29-2.74-3-2.42-4.57.45-2.29,2.56-2.9,4.39-3.93q5.81-3.27,11.29-7.1A152.5,152.5,0,0,0,75.62,160a185.67,185.67,0,0,0,18.79-22.36c3.11-4.34,6-8.79,8.87-13.31.73-1.18,1.46-2.35,2.17-3.53l1-1.69a5.62,5.62,0,0,0,.51-.85,5.4,5.4,0,0,0-.73-1.08,22.47,22.47,0,0,1-2.85-6.57c-1.29-5.12-.72-11.34,3-15.33A12.48,12.48,0,0,1,109,93.19a13.94,13.94,0,0,1,1.53-.81l.64-.26c.85-.28.81-.29-.12,0s-1,.27-.08.09a12.43,12.43,0,0,1,7.18,1.1,9.63,9.63,0,0,0,2.9-.77A246.78,246.78,0,0,0,133,64.73a110.06,110.06,0,0,0,5.76-22.65c.89-7.08.9-15.15-3.87-20.95-4.17-5.07-10.74-7.35-17.08-8.07-8.43-1-16.85.59-25,2.8a109.45,109.45,0,0,0-24.3,9.83A118,118,0,0,0,46.07,41.77c-6.57,6-12.12,13-17.8,19.82C23.08,67.84,17.91,74.26,14,81.4c-2.59,4.69-5.84,11.48-3.44,16.88,1.25,2.83,4.45,3.84,7.31,4A30.56,30.56,0,0,0,27,101.22c1.85-.46,3.69-1,5.52-1.5,1-.3,2-.63,3-1a8,8,0,0,0,1.62-.58,4.27,4.27,0,0,0,1-1.5c3.9-6.84,7.76-13.93,12.66-20.12a32.18,32.18,0,0,1,11-9,5.59,5.59,0,0,0,1-.47c-.8.7-1.48.25-.77.24l.61,0a7.77,7.77,0,0,1,2.49.35,8.78,8.78,0,0,1,4.12,2.9,13.42,13.42,0,0,1,2,12,13.8,13.8,0,0,1-4.91,7.32c-2.09,1.44-4.29,2.73-6.48,4q-5.7,3.34-11.61,6.29c-2.17,1.08-4.37,2.12-6.59,3.1-1.11.49-2.24,1-3.37,1.43a6.31,6.31,0,0,0-1.63.65,7.52,7.52,0,0,0-1,1.84,31.73,31.73,0,0,0-3.42,8.72,38.78,38.78,0,0,0-.43,9.38c.09,1.44.18,3.27,1.29,4.34a10.83,10.83,0,0,0,8.13,2.66c6.82-.58,12.5-4.54,17.15-9.29,1-1,2-2.11,3-3.2s2-2.9,3.44-3.4l-2.9.78c2.73-.43,2.87,4.09,2.05,5.7a14.27,14.27,0,0,1-2.22,2.64c-.58.66-1.15,1.32-1.74,2A49.61,49.61,0,0,1,50.41,136a24.89,24.89,0,0,1-2.85,1.59c-.53.26-1.08.49-1.63.7-.33.12-.69.2-1,.34,1.68-.42,2.1-.54,1.26-.35l-.57.1a13.49,13.49,0,0,1-7.06-.71,12.07,12.07,0,0,1-5.84-4.28,15.4,15.4,0,0,1-2.13-6.93,41.41,41.41,0,0,1,2.36-19.71c-.11.29-2.34.62-2.7.72-.95.28-.16,0,0,0-.35.08-.69.17-1,.24-.61.14-1.23.26-1.85.37-1,.18-2,.32-3,.41a22.48,22.48,0,0,1-5.12-.06A11.84,11.84,0,0,1,12,104.93C7.2,99.73,7.71,91.22,9.64,85c2.59-8.38,7.81-15.81,13.13-22.67,2.79-3.61,5.72-7.11,8.66-10.6s5.83-7.15,9-10.53A118.38,118.38,0,0,1,85.88,11a68,68,0,0,1,26.43-4.52c6.67.32,13.49,2.08,18.79,6.32,13.14,10.52,10.21,30.24,6.42,44.52a192.16,192.16,0,0,1-10,27.84c-1,2.28-2,4.54-3.1,6.79-.53,1.13-1.06,2.25-1.61,3.37a5.84,5.84,0,0,0-.4.84c-.14.48-.22.19,0,.67a11.56,11.56,0,0,0,.86,1.25c2.28,3.68,3,8.08,3.08,12.34.07,2.44,0,4.88-.18,7.32-.08,1.27-.19,2.53-.31,3.8-.08.84,0,.74.74.64.5-.06,1-.14,1.49-.23a45.94,45.94,0,0,0,10.24-3.14c8-3.57,14.61-9.68,20.41-16.09,10.68-11.79,17.1-26.17,20.63-41.57.41-1.79.44-4.17,1.82-5.51a4.82,4.82,0,0,1,1-.72,3.73,3.73,0,0,0,.53-.27l-.91.23c-1,.21-1.22.28-.65.21a2.8,2.8,0,0,1,2,1A4.26,4.26,0,0,1,184,60.4c-.52,2-1.09,4-1.65,6A111.2,111.2,0,0,1,172,91.06a102.37,102.37,0,0,1-13.95,19c-5.69,6.13-12.09,11.91-19.52,15.83a40.91,40.91,0,0,1-6.11,2.66l-.71.24c-.44.15-.71,0,.35-.08a12.3,12.3,0,0,0-1.49.31c-.94.16-1.89.27-2.84.34S125.8,130,124.83,130.1Z"/><path class="cls-1" d="M63.49,74.09a6.13,6.13,0,0,1,.8-.33l-.42.13c-2.53.7-1,.34-.2.46a4.83,4.83,0,0,1,3.1,1.94,4.06,4.06,0,0,1,0,4.69,11.27,11.27,0,0,1-4.13,3.66A187.42,187.42,0,0,1,42.32,95.57l2.9-.78c2.94-5,5.88-10.09,9.73-14.41a27.16,27.16,0,0,1,8.54-6.29c-.88.43-2,.34-2.9.77a27.19,27.19,0,0,0-8.54,6.3c-3.85,4.31-6.79,9.46-9.73,14.41.1-.18,1.24-.32,1.45-.38a8.88,8.88,0,0,0,1.45-.4A188.74,188.74,0,0,0,64,84.8a33.61,33.61,0,0,0,3.87-2.44c2.14-1.74,3.6-4.89,1.54-7.22-2.25-2.56-6.07-1.48-8.77-.28C61.49,74.46,62.58,74.49,63.49,74.09Z"/><path class="cls-1" d="M107.81,105.79a5.54,5.54,0,0,1,.44-3.5,6.38,6.38,0,0,1,3.27-2.48l.28-.1.16,0q.74-.25-.84.21c-1.86.49-1.2.29-.81.22l.46-.08a9.33,9.33,0,0,1,1.4-.11,8.65,8.65,0,0,1,1.44.11,5.88,5.88,0,0,1,.73.14s.27,0,.28.08-.2.39-.23.44q-1.5,2.85-3,5.67-1.8,3.28-3.66,6.53l2.9-.78a15.28,15.28,0,0,1-2.78-6.3c0,.08-2.92.65-2.9.77a15.38,15.38,0,0,0,2.78,6.31,8.36,8.36,0,0,0,1.45-.37l1-.28c.07,0,.39-.07.42-.13q1.83-3.18,3.59-6.41l1.75-3.23c.28-.52.56-1,.83-1.56.14-.25.28-.51.41-.77a3.88,3.88,0,0,0,.24-.45c.08-.26.14-.13,0-.27a4.25,4.25,0,0,0-1.64-.26,9.87,9.87,0,0,0-1.63,0,21.9,21.9,0,0,0-3.37.77,10,10,0,0,0-4.77,2.33,4.93,4.93,0,0,0-1,4.28C104.9,106.46,107.83,105.93,107.81,105.79Z"/><path class="cls-1" d="M123.78,121.25a17.58,17.58,0,0,1-5.8-2.45A28.16,28.16,0,0,1,115.4,117c-.28-.21-.87-.52-1-.83s.48-1.14.68-1.48q3.47-6.15,6.71-12.42l-2.89.77a14,14,0,0,1,2.47,8.17,76.42,76.42,0,0,1-.47,10.8,13.14,13.14,0,0,1,1.45-.38,6.22,6.22,0,0,0,1.45-.4,76.42,76.42,0,0,0,.47-10.8,13.91,13.91,0,0,0-2.48-8.16,13.93,13.93,0,0,0-2.89.77q-3.25,6.28-6.72,12.43c-.15.26-.84,1.14-.79,1.38s.92.76,1.14.93a27,27,0,0,0,2.43,1.69,18,18,0,0,0,5.94,2.54,4.52,4.52,0,0,0,1.45-.38C122.69,121.56,123.41,121.18,123.78,121.25Z"/><circle class="cls-1" cx="184.98" cy="189.19" r="5.31"/></g></svg>