<svg id="Layer_1" data-name="Layer 1" xmlns="http://www.w3.org/2000/svg" xmlns:xlink="http://www.w3.org/1999/xlink" width="24" height="24" viewBox="0 0 24 23.41"><defs><style>.cls-1{fill:url(#linear-gradient);}</style><linearGradient id="linear-gradient" x1="22.39" y1="18" x2="1.61" y2="6" gradientUnits="userSpaceOnUse"><stop offset="0" stop-color="#ff4fa8"/><stop offset="0.15" stop-color="#ff50a4"/><stop offset="0.31" stop-color="#ff5497"/><stop offset="0.47" stop-color="#ff5b83"/><stop offset="0.63" stop-color="#ff6466"/><stop offset="0.79" stop-color="#ff7040"/><stop offset="0.95" stop-color="#ff7f13"/><stop offset="1" stop-color="#ff8305"/></linearGradient></defs><path class="cls-1" d="M12,0A12,12,0,0,0,8.21,23.39c.6.11.79-.26.79-.58V20.58c-3.34.72-4-1.42-4-1.42A3.19,3.19,0,0,0,3.63,17.4c-1.08-.74.09-.72.09-.72a2.52,2.52,0,0,1,1.84,1.23,2.54,2.54,0,0,0,3.49,1,2.53,2.53,0,0,1,.76-1.6C7.15,17,4.34,16,4.34,11.37A4.63,4.63,0,0,1,5.58,8.15,4.28,4.28,0,0,1,5.7,5s1-.32,3.3,1.23a11.49,11.49,0,0,1,3-.41,11.63,11.63,0,0,1,3,.41C17.3,4.66,18.3,5,18.3,5a4.23,4.23,0,0,1,.12,3.17,4.63,4.63,0,0,1,1.24,3.22c0,4.61-2.81,5.63-5.48,5.93A2.86,2.86,0,0,1,15,19.52v3.29c0,.32.19.69.8.58A12,12,0,0,0,12,0Z"/></svg>