<svg id="Layer_1" data-name="Layer 1" xmlns="http://www.w3.org/2000/svg" xmlns:xlink="http://www.w3.org/1999/xlink" width="24" height="24" viewBox="0 0 24 24"><defs><style>.cls-1{fill:url(#linear-gradient);}</style><linearGradient id="linear-gradient" x1="24.61" y1="19.28" x2="-0.61" y2="4.72" gradientUnits="userSpaceOnUse"><stop offset="0" stop-color="#ff4fa8"/><stop offset="0.15" stop-color="#ff50a4"/><stop offset="0.31" stop-color="#ff5497"/><stop offset="0.47" stop-color="#ff5b83"/><stop offset="0.63" stop-color="#ff6466"/><stop offset="0.79" stop-color="#ff7040"/><stop offset="0.95" stop-color="#ff7f13"/><stop offset="1" stop-color="#ff8305"/></linearGradient></defs><path class="cls-1" d="M19,0H5A5,5,0,0,0,0,5V19a5,5,0,0,0,5,5H19a5,5,0,0,0,5-5V5A5,5,0,0,0,19,0ZM8,19H5V8H8ZM6.5,6.73A1.77,1.77,0,1,1,8.25,5,1.75,1.75,0,0,1,6.5,6.73ZM20,19H17V13.4c0-3.37-4-3.12-4,0V19H10V8h3V9.77c1.4-2.59,7-2.78,7,2.47Z"/></svg>