<svg id="Layer_1" data-name="Layer 1" xmlns="http://www.w3.org/2000/svg" viewBox="0 0 304.32 55.84"><defs><style>.cls-1{fill:#888;stroke:#888;stroke-miterlimit:10;}</style></defs><path class="cls-1" d="M299.15,16.94a9,9,0,0,0-3.51-1c6.64,1.59,7,11.51,3.72,16.09-3.61,5.05-9.41,6.61-15.39,5.54C274.64,36,266.22,31,257.65,27l1.08-.49c4.42,1.32,8.68,3.09,13.07,4.5,5.87,1.88,13.09,3.94,19.13,1.52,7.26-2.91,6.8-13.69-1.47-14.58-4.71-.5-9.3,4.61-5,8.43,1.74,1.56,4.11,2,5.62-.08,1.16-1.58.69-4.47-1.47-4.91a2.58,2.58,0,0,1,1.21,3.24c-1.37,3-5.62.92-5.5-1.92.16-3.68,5-4.53,7.68-2.83,3.93,2.52,3.44,7,.26,9.82-2.65,2.35-6.59,3.08-10.05,2.77-7.83-.7-15.16-3.94-22.68-6.34,5.72-3.09,5.14-10.9-.65-13.59-3.2-1.48-7.66-1.42-9.87,1.72-2.64,3.74.06,9.83,4.91,9.51a4.46,4.46,0,0,0,4-5.09c-.5-2.48-4.52-4.34-5.89-1.39,1.11-2.4,4.45-.11,4.37,1.86-.2,4.66-6.56,3.75-7-.35a6.09,6.09,0,0,1,1.58-4.51c3.25-3.58,9.43-1.12,11,2.83s-1.14,6.67-4.43,8.39c-1.73-.51-3.47-1-5.23-1.31l-1.93-.35c-9.56-3.63-19.78-5.77-30-4.59a113.34,113.34,0,0,0-21,4.29c-4.18-1.09-8.29-2.4-12.48-3.44a64.25,64.25,0,0,0-12.12-1.89c.91-7.6-9.84-12.1-16-8.84-.2.1-.38.23-.57.34-1.3-3.64-4-6.54-6.48-9.68-2.47,3.12-5.14,6-6.46,9.61-.15-.09-.29-.19-.45-.27-6.17-3.26-16.92,1.24-16,8.84a64.23,64.23,0,0,0-12.13,1.89c-4.19,1-8.3,2.35-12.48,3.44a113.28,113.28,0,0,0-21-4.29c-10.25-1.18-20.47,1-30,4.59l-1.93.35c-1.76.35-3.5.8-5.23,1.31-3.29-1.72-6-4.44-4.43-8.39s7.72-6.41,11-2.83A6.09,6.09,0,0,1,54,18.76c-.42,4.1-6.78,5-7,.35-.09-2,3.25-4.26,4.36-1.86C50,14.3,46,16.16,45.46,18.64a4.48,4.48,0,0,0,4,5.09c4.85.32,7.55-5.77,4.91-9.51-2.21-3.14-6.67-3.2-9.87-1.72-5.79,2.69-6.37,10.5-.65,13.59C36.3,28.49,29,31.73,21.13,32.43c-3.45.31-7.38-.42-10-2.77-3.18-2.82-3.67-7.3.26-9.82C14,18.14,18.87,19,19,22.67c.13,2.84-4.13,4.95-5.5,1.92a2.57,2.57,0,0,1,1.21-3.24c-2.16.44-2.64,3.33-1.48,4.91,1.52,2.06,3.89,1.64,5.63.08,4.27-3.82-.31-8.93-5-8.43-8.27.89-8.73,11.67-1.47,14.58,6,2.42,13.26.36,19.13-1.52,4.39-1.41,8.65-3.18,13.07-4.5l1.08.49c-8.57,4.05-17,9-26.32,10.66-6,1.07-11.78-.49-15.39-5.54C.68,27.5,1,17.58,7.68,16a9,9,0,0,0-3.51,1C-1.69,20-.61,29.35,2.74,33.85c7.21,9.72,21.9,3.75,30.53-.22,4.56-2.09,9-4.25,13.54-6.24,7.09,2.49,15.8,1.92,22.94,1.48,6.92-.42,13.82-1.32,20.69-2.31,2.9.69,5.77,1.42,8.62,2.13a157.22,157.22,0,0,1-33.81,3.92c-2.09,0-4.24-.17-6.38-.35-1.48-.12-3-.25-4.42-.32,14.58,4.24,31.32.71,45.73-2.69l.56-.14c6.13,1.5,12.26,3.2,18.44,4.58a4.05,4.05,0,0,0,.12.5c1.24,4.16,6.79,4.94,10.33,3.47,1.28,4.28,7.18,6.16,11.28,5.5a14.27,14.27,0,0,0,3.57-1.07c.78,4.87,4.1,8.32,7.11,12.13,3-3.83,6.36-7.29,7.11-12.19a14.46,14.46,0,0,0,3.71,1.13c4.1.66,10-1.22,11.28-5.5,3.54,1.47,9.09.69,10.33-3.47,0-.16.08-.33.12-.5,6.18-1.38,12.31-3.08,18.43-4.58l.57.14c14.4,3.4,31.14,6.93,45.73,2.69-1.46.07-2.94.2-4.42.32-2.14.18-4.29.35-6.38.35a157.22,157.22,0,0,1-33.81-3.92c2.84-.71,5.72-1.44,8.62-2.13,6.87,1,13.77,1.89,20.69,2.31,7.14.44,15.85,1,22.94-1.48,4.51,2,9,4.15,13.54,6.24,8.63,4,23.32,9.94,30.54.22C303.93,29.35,305,20,299.15,16.94ZM174.53,18.88c8.12.24,15.69,3,23.47,5-1.81.6-3.59,1.25-5.33,2q-3.6-1-7.18-2c-4.9-1.41-12.77-3.62-16.41,1.6a7.57,7.57,0,0,0-1.3,3.06,8.33,8.33,0,0,0-3-.21,7.83,7.83,0,0,0-5.95,4.35,14,14,0,0,1-4.71-6.13,12.06,12.06,0,0,1,7-5.92c1.12,2.09,3.74,2.82,6.16,3,2.75.2,6.41-1.38,7.18-4.37C174.48,19.12,174.5,19,174.53,18.88Zm-8,16.26a20.24,20.24,0,0,1-4.58-.86,10.91,10.91,0,0,1-1.92-.83,4.9,4.9,0,0,1,1.63-2.63,7,7,0,0,1,6-1.34,7.87,7.87,0,0,0,2.41,5.7c-.83,0-1.64,0-2.45,0A3.68,3.68,0,0,0,166.41,33a2.85,2.85,0,0,0-3.26-.11C165,31.88,166.34,33.45,166.56,35.14Zm0,.74a2.89,2.89,0,0,1-.32,1.14c-1.07,2-3.57,1.91-5.09.55a3.91,3.91,0,0,1-1.26-3.2A20.82,20.82,0,0,0,166.59,35.88Zm-4.3-15.64a38.6,38.6,0,0,1,10.63-1.39h.15a4.6,4.6,0,0,1-2.24,2.83C168.28,23.1,163.94,22.9,162.29,20.24Zm-3.84-9.33c4-2.43,9.58-2.43,13,1.39a7.68,7.68,0,0,1,1.82,5.83,40.17,40.17,0,0,0-10.07,1c-.42.1-.83.21-1.24.33-.57-1.9.43-4.79,2.35-5.43a2.55,2.55,0,0,1,3.06,1.37,2.88,2.88,0,0,1,.24,2.16c2.57-3-2.31-5.87-4.95-4.07-2.1,1.44-2.51,4-1.86,6.26a.25.25,0,0,0,0,.07,14.65,14.65,0,0,0-7.26,4.94A15.21,15.21,0,0,1,153,21.6a7.4,7.4,0,0,0,5.84-7.75A13.72,13.72,0,0,0,158.45,10.91ZM153,20.41a11.44,11.44,0,0,1,3.66-8.19,6.71,6.71,0,0,1,.58-.48C157.69,15.66,156.38,19.28,153,20.41ZM151.59,1.83c2.25,2.61,4.66,5.33,5.43,8.56a14.21,14.21,0,0,0-5.26,10.31l-.17,0h0a14.2,14.2,0,0,0-5.38-10.42C147,7.12,149.36,4.42,151.59,1.83Zm.2,30.59-.2,0h-.06a12.26,12.26,0,0,0,.11-1.36,10.3,10.3,0,0,0-.8-4.48,14.93,14.93,0,0,0,.76-4.74l.12,0a15,15,0,0,0,.76,4.76,10.3,10.3,0,0,0-.8,4.48A12.44,12.44,0,0,0,151.79,32.42ZM146,11.63c.24.19.48.38.7.59a11.45,11.45,0,0,1,3.66,8.23C146.8,19.37,145.46,15.64,146,11.63Zm-14,.67c3.33-3.78,8.81-3.82,12.83-1.47a13.25,13.25,0,0,0-.43,3,7.4,7.4,0,0,0,6,7.78,15.62,15.62,0,0,1-.49,3.11,14.65,14.65,0,0,0-7.26-4.94l0-.07c.64-2.31.23-4.82-1.87-6.26-2.64-1.8-7.53,1.06-5,4.07a2.88,2.88,0,0,1,.24-2.16A2.55,2.55,0,0,1,139.06,14c1.92.64,2.92,3.53,2.35,5.43-.41-.12-.82-.23-1.24-.33a40.17,40.17,0,0,0-10.07-1A7.68,7.68,0,0,1,131.92,12.3ZM141,20.24c-1.65,2.66-6,2.86-8.54,1.45a4.55,4.55,0,0,1-2.23-2.83h.14A38.6,38.6,0,0,1,141,20.24Zm-12.24-1.36c0,.12.05.24.08.38.77,3,4.43,4.57,7.18,4.37,2.42-.17,5-.9,6.16-3a12.06,12.06,0,0,1,7,5.92,14.07,14.07,0,0,1-4.71,6.13,7.82,7.82,0,0,0-5.95-4.35,8.38,8.38,0,0,0-3,.21,7.55,7.55,0,0,0-1.29-3.06c-3.64-5.22-11.51-3-16.41-1.6-2.39.69-4.79,1.35-7.18,2-1.74-.72-3.52-1.37-5.33-2C113.1,21.89,120.67,19.12,128.79,18.88ZM136.91,33a3.68,3.68,0,0,0-1.24,2.25c-.81,0-1.63,0-2.45,0a7.87,7.87,0,0,0,2.41-5.7,7,7,0,0,1,6,1.34,5,5,0,0,1,1.63,2.63,10.91,10.91,0,0,1-1.92.83,20.24,20.24,0,0,1-4.58.86c.22-1.69,1.57-3.26,3.41-2.3A2.85,2.85,0,0,0,136.91,33Zm6.48,1.42a3.9,3.9,0,0,1-1.25,3.2c-1.53,1.36-4,1.42-5.09-.55a2.73,2.73,0,0,1-.32-1.14A20.7,20.7,0,0,0,143.39,34.37ZM46.7,25.89c.93-.24,1.87-.47,2.81-.67-.72.31-1.44.62-2.16,1Zm39,.64c-4.23.57-8.45,1.15-12.7,1.55-7.31.68-14.86,1.08-22-.71-.74-.19-1.56-.43-2.41-.73,1.87-.8,3.75-1.57,5.65-2.28,3.14-.48,6.31-.79,9.43-1,8.37-.56,16.77.89,25,2.79C87.66,26.27,86.68,26.39,85.7,26.53ZM82.37,24a78.91,78.91,0,0,0-24.65-.85A67,67,0,0,1,73,19.83c7.61-.69,15.27.87,22.6,2.76,1.92.49,3.83,1,5.74,1.6-3.31.75-6.71,1.22-10.1,1.64C88.26,25.17,85.32,24.54,82.37,24Zm10.49,2.25,4.82-.71c1.66-.24,3.3-.57,4.92-.94,2.06.61,4.12,1.22,6.19,1.79-2.52.66-5,1.27-7.56,1.85C98.44,27.53,95.66,26.86,92.86,26.22Zm28,7.85c2.63.55,5.28,1,7.94,1.43l.54.07a6.39,6.39,0,0,0,.09,1.47C126.2,38.33,122.26,37.11,120.9,34.07Zm8.56.75c-3-.44-6-1.15-8.92-1.87a6.27,6.27,0,0,1-.1-1.86,5,5,0,0,1,7.7-3.55c2.14,1.57.65,5.08-1.92,4.52-1.65-.36-1.81-3.26.14-3.21-2.61-.06-3.49,3.21-.94,4.16a3.74,3.74,0,0,0,5-2c1.41-4-3-5.55-6.12-5.07a6.39,6.39,0,0,0-5.26,6.64c-1-.25-1.91-.48-2.82-.7-4.48-1.07-9-2.19-13.43-3.28q3.63-.9,7.21-1.87a48.33,48.33,0,0,0,6.83,2.06c-1.69-.91-3.44-1.73-5.21-2.5l1.91-.52c4.9-1.39,10.3-3.85,15.43-2.45a6.73,6.73,0,0,1,5.11,5.73A7.77,7.77,0,0,0,129.46,34.82ZM134.14,30a7.93,7.93,0,0,1-1.48,4.55,6.75,6.75,0,0,1-.47.59c-.48,0-1-.08-1.45-.14A5.53,5.53,0,0,1,134.14,30Zm-3.36,5.76.72.07a5.91,5.91,0,0,1-.63.49C130.83,36.11,130.8,35.92,130.78,35.74Zm13.62,5.77c-4.65,2.49-11.76.64-13.35-4.59a10.68,10.68,0,0,0,1.43-1c1,.06,2.09.09,3.14.06a3.62,3.62,0,0,0,3.64,3.79,5.36,5.36,0,0,0,5.61-5.24,3.33,3.33,0,0,0-.09-.78c.41-.22.82-.46,1.22-.72A12,12,0,0,0,150,28.62a11,11,0,0,1,.26,4,7.4,7.4,0,0,0-5.89,7.76A10.55,10.55,0,0,0,144.4,41.51ZM150,33.87a11.92,11.92,0,0,1-4.16,6.68C146,37.48,147.3,34.85,150,33.87Zm7.16,9.25c-.57,3.54-3.16,6.47-5.58,9.27-2.41-2.8-5-5.73-5.58-9.27a12.94,12.94,0,0,1-.16-1.74,11.78,11.78,0,0,0,5.49-7.84l.25,0,.39.07a11.79,11.79,0,0,0,5.35,7.73A14.13,14.13,0,0,1,157.17,43.12Zm-3.84-9.19c2.56,1,3.83,3.54,4,6.5A11.88,11.88,0,0,1,153.33,33.93Zm5.46,7.51c0-.35.06-.7.07-1.07a7.39,7.39,0,0,0-5.75-7.73,11.15,11.15,0,0,1,.26-4A12,12,0,0,0,157.32,33c.4.26.8.5,1.21.72a4.91,4.91,0,0,0-.08.78,5.35,5.35,0,0,0,5.6,5.24,3.62,3.62,0,0,0,3.65-3.79c1.05,0,2.09,0,3.14-.06a10.68,10.68,0,0,0,1.43,1C170.66,42.2,163.43,44,158.79,41.44Zm13.66-5.14a7.25,7.25,0,0,1-.64-.49l.73-.07C172.52,35.92,172.49,36.11,172.45,36.3Zm-1.32-1.18a5.29,5.29,0,0,1-.47-.59A7.86,7.86,0,0,1,169.18,30a5.54,5.54,0,0,1,3.4,5C172.1,35,171.61,35.08,171.13,35.12ZM173.85,37a7,7,0,0,0,.09-1.47l.54-.07c2.66-.38,5.3-.88,7.94-1.43C181.06,37.11,177.12,38.33,173.85,37Zm13.24-5.16c-.91.22-1.86.45-2.82.7A6.39,6.39,0,0,0,179,25.94c-3.14-.48-7.53,1.09-6.12,5.07a3.74,3.74,0,0,0,5,2c2.55-.95,1.68-4.22-1-4.16,2-.05,1.81,2.85.15,3.21a2.52,2.52,0,0,1-1.92-4.52c3-2.21,7.38,0,7.7,3.55a6.27,6.27,0,0,1-.1,1.86,91.09,91.09,0,0,1-8.93,1.87,7.73,7.73,0,0,0-4.61-5.77,6.73,6.73,0,0,1,5.11-5.73c5.13-1.4,10.53,1.06,15.42,2.45l1.92.52c-1.78.77-3.52,1.59-5.21,2.5a48.73,48.73,0,0,0,6.83-2.06q3.58,1,7.2,1.87C196,29.69,191.57,30.81,187.09,31.88Zm15-3.67c-2.53-.58-5-1.19-7.57-1.85,2.08-.57,4.13-1.18,6.2-1.79,1.62.37,3.26.7,4.92.94l4.82.71C207.67,26.86,204.88,27.53,202.09,28.21Zm10-2.38c-3.39-.42-6.79-.89-10.1-1.64,1.91-.56,3.82-1.11,5.74-1.6,7.33-1.89,15-3.45,22.6-2.76a67,67,0,0,1,15.23,3.29A78.9,78.9,0,0,0,221,24C218,24.54,215.06,25.17,212.13,25.83Zm40.23,1.54c-7.18,1.79-14.73,1.39-22,.71-4.25-.4-8.47-1-12.71-1.55-1-.14-2-.26-2.94-.38,8.25-1.9,16.65-3.35,25-2.79,3.12.21,6.29.52,9.43,1,1.89.71,3.78,1.48,5.65,2.28C253.92,26.94,253.1,27.18,252.36,27.37Zm3.61-1.2c-.72-.33-1.44-.64-2.16-1,.94.2,1.87.43,2.8.67Z" transform="translate(0.5 0.81)"/></svg>